<svg width="29" height="21" viewBox="0 0 29 21" fill="none" xmlns="http://www.w3.org/2000/svg">
<path d="M24.9513 11.5835H26.7334V20.4943H24.9513V11.5835ZM21.3858 8.01967L23.1691 8.01922V20.4943H21.387L21.3858 8.01967ZM17.8227 15.1478H19.6048V20.4943H17.8227V15.1478ZM21.1731 5.34645L22.2769 4.00745C20.9637 2.36565 18.0061 0.563257 15.9425 0.161731C14.7926 -0.0603589 13.6102 -0.0536557 12.4629 0.181458C11.3155 0.416573 10.2258 0.875488 9.25591 1.53197C8.28603 2.18846 7.45504 3.02965 6.81043 4.00745C6.16582 4.98526 5.72022 6.08052 5.49911 7.23062C3.81881 7.53405 2.31821 8.46872 1.30492 9.84303C0.291625 11.2173 -0.157608 12.9272 0.0493035 14.6221C0.286052 16.2692 1.11455 17.7738 2.37992 18.8545C3.6453 19.9352 5.26093 20.5181 6.92483 20.4943H14.2584V18.7121H6.858C5.6907 18.7308 4.55341 18.3419 3.64206 17.6122C2.73072 16.8825 2.10239 15.8579 1.86531 14.7148C1.74647 14.0789 1.75453 13.4259 1.88903 12.7932C2.02353 12.1605 2.28181 11.5606 2.64902 11.0281C3.01622 10.4956 3.4851 10.041 4.02867 9.69035C4.57225 9.33974 5.17979 9.10007 5.81634 8.98515L7.01839 8.76683L7.20908 7.77774C7.47728 6.29186 8.19867 4.92537 9.27427 3.86572C10.3499 2.80608 11.727 2.10519 13.2167 1.85923C14.1112 1.72717 15.0226 1.76648 15.9024 1.97507C17.4321 2.34129 20.2046 4.10706 21.1731 5.34645Z" fill="#757474"/>
<path d="M20.1967 9.57866C20.1967 9.16516 20.361 8.76858 20.6534 8.47619C20.9458 8.1838 21.3424 8.01953 21.7559 8.01953H22.7953C23.2088 8.01953 23.6054 8.1838 23.8978 8.47619C24.1902 8.76858 24.3544 9.16516 24.3544 9.57866V20.5065H20.1967V9.57866ZM19.6034 12.884H17.5982C17.1847 12.884 16.7881 13.0483 16.4957 13.3407C16.2033 13.6331 16.0391 14.0297 16.0391 14.4432V19.9867C16.0391 20.2743 16.2719 20.5065 16.5588 20.5065H19.6034V16.9303V12.884ZM24.9498 20.5065H27.9924C28.1302 20.5065 28.2624 20.4517 28.3599 20.3542C28.4574 20.2568 28.5121 20.1246 28.5121 19.9867V12.3643C28.5121 11.9508 28.3479 11.5542 28.0555 11.2618C27.7631 10.9694 27.3665 10.8052 26.953 10.8052H24.9498V16.0392V20.5065Z" fill="#757474"/>
</svg>
