<svg width="19" height="22" viewBox="0 0 19 22" fill="none" xmlns="http://www.w3.org/2000/svg">
<path d="M5.42857 0C6.17924 0 6.78571 0.614453 6.78571 1.375V2.75H12.2143V1.375C12.2143 0.614453 12.8208 0 13.5714 0C14.3221 0 14.9286 0.614453 14.9286 1.375V2.75H16.9643C18.0882 2.75 19 3.67383 19 4.8125V6.875H0V4.8125C0 3.67383 0.91183 2.75 2.03571 2.75H4.07143V1.375C4.07143 0.614453 4.6779 0 5.42857 0ZM0 8.25H19V19.9375C19 21.0762 18.0882 22 16.9643 22H2.03571C0.91183 22 0 21.0762 0 19.9375V8.25ZM13.9531 13.1055C14.3518 12.7016 14.3518 12.0484 13.9531 11.6488C13.5545 11.2492 12.9098 11.2449 12.5154 11.6488L8.48638 15.7309L6.49308 13.7113C6.09442 13.3074 5.44978 13.3074 5.05536 13.7113C4.66094 14.1152 4.6567 14.7684 5.05536 15.168L7.76964 17.918C8.1683 18.3219 8.81295 18.3219 9.20737 17.918L13.9531 13.1055Z" fill="#757474"/>
</svg>
