<svg width="20" height="20" viewBox="0 0 20 20" fill="none" xmlns="http://www.w3.org/2000/svg">
<path d="M12.2392 10.3354C12.3047 10.4011 12.3156 10.4776 12.414 10.4557C12.5232 9.98549 12.9056 9.61365 13.1241 9.18713C13.5721 8.32316 13.7141 7.3717 13.6595 6.39837C14.9268 6.46398 15.484 5.46878 15.9101 4.4517L15.3092 4.20016C15.047 4.94383 14.8394 5.62189 13.9763 5.78593L9.47501 6.24526C9.19095 5.81874 9.19095 5.21724 9.43131 4.75792L13.1132 4.4517L13.0586 3.80645L9.60612 4.03612C8.96151 2.36286 9.52964 0.0443535 11.6273 0.000608189C13.4956 -0.0322008 15.9757 1.26922 17.5162 2.25349C18.2591 4.05799 18.9584 5.88436 19.4391 7.77635C20.0291 10.0948 20.3896 12.3805 19.2861 14.6116C19.1659 14.8522 18.8273 15.2896 18.7617 15.4865C18.4667 16.4379 18.5432 16.8863 17.7893 17.7175C16.4236 19.2048 14.4133 19.0845 12.6216 18.5924C10.065 20.3859 6.47049 20.4406 3.77189 18.8986C3.22562 19.1939 2.74489 19.4345 2.12214 19.5329C1.7616 19.5876 0.494238 19.6641 0.221101 19.5548C0.10092 19.5001 -0.0192611 19.3579 0.00258996 19.2158L0.0353667 8.79343C0.144622 8.64032 0.297579 8.60751 0.483313 8.58563C1.73975 8.46533 3.01803 8.695 4.02318 9.48241C4.66778 9.0559 5.36702 8.68406 6.1318 8.49814C8.52449 7.90758 10.5457 8.61844 12.2173 10.3245L12.2392 10.3354ZM3.12729 13.168C3.06173 13.2664 3.55338 13.7367 3.65171 13.8132C5.42165 15.2787 8.98336 15.2787 10.8844 14.0538C10.9827 13.9882 11.4088 13.682 11.4088 13.5835L10.9937 13.157C9.62797 14.3163 7.53027 14.5131 5.83681 14.1194C5.0611 13.9444 4.09966 13.5507 3.67356 12.8508L3.12729 13.157V13.168Z" fill="#757474"/>
</svg>
