<svg width="26" height="24" viewBox="0 0 26 24" fill="none" xmlns="http://www.w3.org/2000/svg">
<path d="M23.3369 19.0684V17.4248H21.5391C21.4278 16.9105 21.2148 16.4215 20.9116 15.9842L22.1872 14.7598L20.9766 13.5978L19.7011 14.8222C19.2455 14.5315 18.736 14.3273 18.2003 14.2207V12.4941H16.4881V14.2207C15.9524 14.3273 15.443 14.5315 14.9874 14.8222L13.7118 13.5978L12.5013 14.7598L13.7769 15.9842C13.4737 16.4215 13.2607 16.9105 13.1494 17.4248H11.3516V19.0684H13.1494C13.2607 19.5919 13.4781 20.0784 13.776 20.509L12.5004 21.7334L13.711 22.8954L14.9865 21.671C15.4423 21.9621 15.9521 22.1666 16.4881 22.2733V23.9991H18.2003V22.2733C18.736 22.1667 19.2455 21.9625 19.7011 21.6718L20.9766 22.8962L22.1872 21.7342L20.9116 20.5098C21.2149 20.0723 21.4279 19.5829 21.5391 19.0684H23.3369ZM17.3442 20.7119C16.6631 20.7119 16.0098 20.4522 15.5282 19.9899C15.0465 19.5275 14.7759 18.9005 14.7759 18.2466C14.7759 17.5928 15.0465 16.9657 15.5282 16.5033C16.0098 16.041 16.6631 15.7813 17.3442 15.7813C18.0254 15.7813 18.6786 16.041 19.1603 16.5033C19.6419 16.9657 19.9125 17.5928 19.9125 18.2466C19.9125 18.9005 19.6419 19.5275 19.1603 19.9899C18.6786 20.4522 18.0254 20.7119 17.3442 20.7119Z" fill="#757474"/>
<path d="M13.2921 12.8138L12.8753 11.2197L11.1315 11.6398C10.8931 11.167 10.5625 10.7425 10.1575 10.3892L11.0842 8.90351L9.61539 8.05937L8.68874 9.54508C8.17311 9.36957 7.62721 9.29057 7.08059 9.31235L6.6427 7.63774L4.98202 8.03788L5.41992 9.71249C4.92738 9.94108 4.48506 10.2582 4.1169 10.6467L2.56915 9.75714L1.68976 11.1671L3.23751 12.0566C3.05436 12.5516 2.97178 13.0756 2.99424 13.6005L1.25053 14.0206L1.66737 15.6147L3.41108 15.1946C3.65179 15.6763 3.98608 16.0973 4.38425 16.4454L3.45759 17.9311L4.9264 18.7752L5.85306 17.2895C6.36897 17.4653 6.91524 17.5445 7.46224 17.5228L7.89993 19.1966L9.5606 18.7965L9.12292 17.1227C9.61545 16.8941 10.0578 16.577 10.4259 16.1885L11.9737 17.078L12.8531 15.6681L11.3053 14.7786C11.4885 14.2834 11.571 13.759 11.5484 13.2339L13.2921 12.8138ZM7.89658 15.8084C7.23592 15.9675 6.53644 15.8683 5.95203 15.5324C5.36761 15.1965 4.94613 14.6516 4.7803 14.0174C4.61447 13.3832 4.71788 12.7118 5.06777 12.1508C5.41767 11.5898 5.98539 11.1852 6.64605 11.026C7.30671 10.8668 8.00618 10.9661 8.5906 11.302C9.17501 11.6378 9.59649 12.1828 9.76232 12.817C9.92815 13.4512 9.82475 14.1226 9.47485 14.6836C9.12496 15.2446 8.55723 15.6492 7.89658 15.8084Z" fill="#757474"/>
<path d="M22.8228 5.94347L22.0916 4.45732L20.466 5.19431C20.1365 4.77492 19.7263 4.42005 19.2577 4.14894L19.8663 2.51885L18.2548 1.96438L17.6461 3.59447C17.1048 3.51835 16.5533 3.54254 16.0215 3.66574L15.2534 2.10455L13.7052 2.80644L14.4733 4.36764C14.0363 4.68364 13.6665 5.07712 13.3839 5.52677L11.6858 4.9425L11.1081 6.48945L12.8063 7.07372C12.7267 7.5934 12.7516 8.12291 12.8798 8.63357L11.2541 9.37056L11.9853 10.8567L13.611 10.1197C13.9445 10.5474 14.3575 10.8982 14.8185 11.1654L14.2098 12.7955L15.8214 13.35L16.43 11.7199C16.9717 11.7963 17.5236 11.7722 18.0558 11.649L18.8236 13.2095L20.3718 12.5076L19.604 10.9471C20.041 10.6311 20.4108 10.2377 20.6934 9.78799L22.3916 10.3723L22.9692 8.82532L21.271 8.24105C21.3506 7.72111 21.3255 7.19133 21.1972 6.68046L22.8228 5.94347ZM18.1353 9.88624C17.5194 10.1655 16.8131 10.1984 16.1719 9.97778C15.5307 9.75717 15.0071 9.30108 14.7162 8.70985C14.4253 8.11862 14.391 7.44069 14.6208 6.82518C14.8506 6.20968 15.3258 5.70702 15.9417 5.42779C16.5576 5.14856 17.2638 5.11563 17.905 5.33625C18.5462 5.55686 19.0699 6.01295 19.3608 6.60418C19.6517 7.1954 19.686 7.87334 19.4561 8.48884C19.2263 9.10435 18.7512 9.60701 18.1353 9.88624Z" fill="#757474"/>
</svg>
