<svg width="25" height="25" viewBox="0 0 25 25" fill="none" xmlns="http://www.w3.org/2000/svg">
<path d="M11.2285 18.3741C8.41408 18.3741 6.12435 16.0844 6.12435 13.2699C6.12435 10.9343 7.70054 8.9037 9.95659 8.33C10.4946 8.1932 11.058 8.52104 11.1969 9.06821C11.3367 9.61537 11.0049 10.1708 10.4588 10.3096C9.10924 10.6526 8.16602 11.8703 8.16602 13.2709C8.16602 14.9594 9.54006 16.3334 11.2285 16.3334C12.6281 16.3334 13.8459 15.3901 14.19 14.0395C14.3288 13.4924 14.8851 13.1617 15.4313 13.3016C15.9774 13.4404 16.3072 13.9968 16.1683 14.543C15.5936 16.799 13.5632 18.3741 11.2285 18.3741ZM20.416 13.2699C20.416 13.0474 20.4038 12.8258 20.3783 12.6032C20.315 12.0438 19.827 11.6356 19.2492 11.705C18.6888 11.7683 18.2876 12.2746 18.3509 12.835C18.3672 12.98 18.3743 13.1249 18.3743 13.2709C18.3743 17.2113 15.1679 20.4168 11.2285 20.4168C7.28912 20.4168 4.08268 17.2113 4.08268 13.2709C4.08268 9.3305 7.28912 6.12509 11.2285 6.12509C11.3745 6.12509 11.5205 6.1332 11.6675 6.14851C12.2218 6.21793 12.7322 5.80877 12.7945 5.24731C12.8567 4.68687 12.4525 4.18257 11.8921 4.1203C11.6716 4.0958 11.449 4.08342 11.2285 4.08342C6.16212 4.08342 2.04102 8.20554 2.04102 13.2709C2.04102 18.3363 6.16212 22.4584 11.2285 22.4584C16.2949 22.4584 20.416 18.3353 20.416 13.2699ZM21.9084 6.95003C21.8298 6.75913 21.6431 6.63451 21.4368 6.63451H17.8639V3.06159C17.8639 2.85538 17.7394 2.66866 17.5485 2.59005C17.3586 2.51043 17.1391 2.55423 16.9921 2.70021L14.3778 5.3146C13.9981 5.69435 13.7796 6.22116 13.7796 6.75812V9.27432L10.5058 12.5482C10.1066 12.9473 10.1066 13.5925 10.5058 13.9917C10.7048 14.1907 10.9662 14.2908 11.2275 14.2908C11.4889 14.2908 11.7502 14.1907 11.9492 13.9917L15.2231 10.7178H17.7394C18.2763 10.7178 18.8031 10.5005 19.1828 10.1197L21.7972 7.5053C21.9432 7.35932 21.9871 7.14092 21.9084 6.95003Z" fill="#757474"/>
</svg>
