<svg width="22" height="23" viewBox="0 0 22 23" fill="none" xmlns="http://www.w3.org/2000/svg">
<path d="M19.0664 14.3511C18.6614 13.8549 18.2159 13.5107 17.5983 13.3183C16.9098 13.1057 15.705 12.9133 15.3303 13.7132C15.0266 14.3612 15.4417 15.0598 15.7657 15.6268C13.5889 16.7608 12.8093 19.5351 14.3381 21.5399H2.20856C1.72257 21.5399 1.19607 20.821 1.23657 20.3451V10.7668C1.23657 10.5339 1.3277 10.3314 1.58082 10.2909C1.99594 10.2099 2.46168 11.0705 2.9173 10.8883C3.23117 10.7668 3.69691 10.2403 4.0209 10.0783C4.23352 9.97704 4.31452 9.99729 4.50689 10.0985C4.83089 10.2808 5.24601 10.7364 5.54975 10.8782C5.66113 10.9288 5.75225 10.949 5.87375 10.8984C6.11674 10.7972 6.57236 10.3415 6.84573 10.1795C7.1191 10.0175 7.14948 9.94666 7.45322 10.1087C7.73672 10.2605 8.43533 10.9187 8.67833 10.9288C8.76945 10.9288 8.80995 10.9085 8.89095 10.8782C9.18457 10.7263 9.87306 10.0277 10.1566 10.0175C10.5312 9.99729 11.3007 10.9187 11.6348 10.9288C11.9284 10.9389 12.5663 10.2808 12.8599 10.1188C13.0928 9.98716 13.1636 9.97704 13.3965 10.1188C13.6597 10.2605 14.3584 10.9187 14.571 10.9389C14.6419 10.9389 14.7026 10.9389 14.7633 10.9085C15.0367 10.7465 15.786 10.0479 16.0492 10.0277C16.4238 9.98716 17.1832 10.8883 17.5274 10.9389C17.9324 10.9895 18.4083 10.1188 18.8639 10.3415C18.9044 10.3618 19.0664 10.5137 19.0664 10.5238V14.3612V14.3511Z" fill="#757474"/>
<path d="M19.5 16.0365C21.8388 16.7858 22.8715 19.6815 21.1199 21.5851C19.0241 23.8632 14.5388 22.7494 14.1945 19.5702C13.9212 17.0085 16.4018 15.3885 18.7507 15.8036C18.9228 15.1253 19.3076 14.5481 19.9252 14.2039C20.1986 14.052 20.6846 13.89 20.7352 14.3456C20.7757 14.6696 20.3504 14.7911 20.1378 14.943C19.824 15.186 19.4797 15.6214 19.4898 16.0365H19.5Z" fill="#757474"/>
<path d="M18.5807 9.66199C18.1656 9.68224 17.9125 10.0265 17.5683 10.1885C16.9304 9.81386 16.4241 9.06461 15.604 9.48986C15.4927 9.55061 14.8649 10.067 14.8143 10.0164L14.9054 8.93298C15.7458 9.25698 17.5581 9.06461 17.2746 7.8091C17.0519 6.81684 14.9864 6.25996 14.1157 6.59409L13.3867 5.94608L13.4171 5.85496C13.7411 5.61196 14.2068 5.49046 14.3688 5.07533C14.6827 4.22482 13.5689 3.82994 13.002 3.53632C13.6499 2.17956 15.1687 -0.0884617 16.8899 0.00266395C18.277 0.0735395 18.9047 1.66318 19.1477 2.81744C19.6033 5.04495 19.249 7.50535 18.5909 9.65186L18.5807 9.66199ZM17.872 3.58694C17.2139 2.88831 15.847 2.53393 14.9358 2.87819C14.6523 2.98956 14.3384 3.20219 14.2676 3.51607C13.9233 5.11583 17.4265 5.99671 18.115 4.71082C18.3377 4.2957 18.1656 3.90082 17.872 3.58694Z" fill="#757474"/>
<path d="M9.11307 4.74017C9.37631 5.02367 9.64968 5.4793 9.76106 5.85392C9.9028 6.36018 9.66993 6.43105 10.3179 6.31968C11.3102 6.14755 12.0898 5.79317 13.0415 6.44118C14.0945 7.16006 14.3577 8.69907 14.216 9.8837C13.9527 9.7622 13.7604 9.52933 13.4769 9.42808C13.1428 9.3167 12.9403 9.33695 12.6365 9.49895C12.434 9.61033 11.7759 10.1976 11.6342 10.1875C11.5329 10.1875 10.9052 9.62045 10.733 9.52933C9.82181 9.01295 9.41681 9.83308 8.68783 10.1875C8.00946 9.82295 7.63484 9.08382 6.76411 9.4787C6.51099 9.6002 5.92375 10.147 5.77187 10.1773C5.5795 10.2178 5.29601 9.89383 5.28588 9.69133C5.12388 7.86881 5.92375 5.90455 8.03984 6.07668C8.38408 6.10705 8.7587 6.23868 9.10294 6.2893C9.06244 5.81342 8.7587 5.42867 8.4347 5.11479C8.27271 4.96292 8.01959 4.90217 8.02971 4.61867C8.02971 4.35541 8.29296 4.26429 8.52583 4.29466C8.66758 4.31491 9.03207 4.62879 9.14344 4.74017H9.11307Z" fill="#757474"/>
<path d="M4.61851 9.41034C4.34514 9.36984 4.15276 9.32934 3.87939 9.43059C3.5149 9.56222 3.09978 10.0685 2.83654 10.1697C2.63404 10.2406 2.38092 9.9166 2.19867 9.80522C2.09742 9.74447 1.82405 9.69384 1.77343 9.62297C1.69243 9.52172 1.58106 8.81296 1.57093 8.65096C1.47981 6.4437 3.82877 5.10719 5.69174 6.22094C5.2665 6.70695 4.95263 7.23345 4.77038 7.85108C4.72988 7.99283 4.60838 8.43834 4.60838 8.55984V9.40022L4.61851 9.41034Z" fill="#757474"/>
<path d="M3.91859 5.19607C3.62497 5.24669 3.32123 5.31757 3.04786 5.42894C2.87573 5.49982 2.47074 5.77319 2.36949 5.78332C2.20749 5.81369 1.75188 5.14544 1.681 4.99356C1.34688 4.31518 1.30638 3.5558 2.09612 3.21155C3.5136 2.5838 3.99959 4.07218 3.92872 5.19607H3.91859Z" fill="#757474"/>
<path d="M10.3498 5.64408C10.3903 5.41121 9.93471 4.8847 9.97521 4.73283C10.0258 4.55057 10.4713 4.25695 10.6434 4.18607C11.5142 3.79119 12.6279 3.96332 13.4177 4.46957C14.0555 4.8847 13.7315 4.86445 13.3265 5.13783C13.2152 5.2087 12.8203 5.54283 12.7393 5.55296C12.6279 5.58333 12.2229 5.44158 12.0508 5.43146C11.4737 5.38083 10.8864 5.49221 10.3397 5.64408H10.3498Z" fill="#757474"/>
<path d="M16.281 13.7917C16.8075 13.7107 17.739 13.9841 18.1541 14.3182C18.4173 14.5308 18.6097 14.6928 18.3667 15.0067C18.2655 15.1383 17.7997 15.0573 17.6074 15.0776C17.1619 15.1181 16.7569 15.2902 16.3316 15.3206C16.0886 14.9156 15.471 13.9132 16.281 13.7917Z" fill="#757474"/>
<path d="M0.933095 4.80859C1.03434 5.2136 1.25709 5.56797 1.52034 5.89198C1.60133 5.9831 1.74308 6.15523 1.84433 6.19573L1.21659 7.14749C1.11534 7.22849 0.862222 7.10699 0.750849 7.05636C0.507853 6.94498 0.193983 6.72223 0.0826094 6.46911C-0.190761 5.89198 0.244607 4.85922 0.94322 4.80859H0.933095Z" fill="#757474"/>
<path d="M4.57842 5.20317C4.58854 4.62604 4.50754 4.04891 4.29492 3.51228C4.92266 3.1174 6.03639 3.62365 6.05664 4.40328C6.05664 4.58554 5.84402 5.46642 5.65165 5.45629C5.3884 5.43604 4.91254 5.12216 4.57842 5.20317Z" fill="#757474"/>
<path d="M14.5315 7.16247H15.1794C15.4528 7.16247 16.1514 7.47635 16.3742 7.6586C17.3968 8.51923 15.2301 8.55973 14.7947 8.19523L14.4707 7.25359L14.5315 7.15234V7.16247Z" fill="#757474"/>
<path d="M15.6351 3.39428C16.0806 3.36391 16.7185 3.52591 17.1032 3.75879C17.5285 4.01191 17.8423 4.43717 17.164 4.61942C16.6273 4.76117 15.9287 4.59917 15.4427 4.34604C14.6834 3.94104 14.7036 3.45503 15.6351 3.39428Z" fill="#757474"/>
</svg>
