<svg width="242" height="243" viewBox="0 0 242 243" fill="none" xmlns="http://www.w3.org/2000/svg">
<path d="M51.7871 83.5781L115.06 101.582C120.755 103.202 123.137 108.763 120.381 114.003L106.441 140.507L43.1674 122.503C37.4731 120.883 35.0911 115.322 37.847 110.082L51.7871 83.5781Z" fill="#999999"/>
<path d="M178.094 88C187.351 88 195.292 94.5989 196.987 103.699L221.283 234.12L196.685 224.632L186.089 167.75C185.285 163.434 181.519 160.305 177.129 160.305C172.86 160.305 169.163 163.267 168.233 167.434L158.735 209.995L137.312 201.732L159.336 103.033C161.296 94.2477 169.092 88 178.094 88ZM175.706 131.688C172.6 131.688 170.082 134.206 170.082 137.312C170.082 140.417 172.6 142.936 175.706 142.936H180.843C183.949 142.935 186.467 140.417 186.467 137.312C186.467 134.206 183.949 131.688 180.843 131.688H175.706Z" fill="#999999"/>
<path d="M212.624 179.989C213.554 175.822 217.25 172.859 221.519 172.859C225.909 172.859 229.675 175.989 230.479 180.304L242.001 242.153L202.18 226.794L212.624 179.989Z" fill="#999999"/>
<rect x="214" y="148" width="17" height="12.5" rx="6.25" fill="#999999"/>
<path d="M97.8906 64.9967C97.8906 52.4227 110.455 43.7233 122.225 48.148L147.406 57.6144C154.424 60.2528 159.072 66.9653 159.072 74.4631V234.5L109.436 215.435C102.481 212.763 97.8906 206.083 97.8906 198.632V64.9967Z" fill="#999999"/>
<path d="M159.066 208.503C159.066 221.077 146.502 229.777 134.732 225.352L109.551 215.886C102.533 213.247 97.8853 206.535 97.8853 199.037L97.8853 39L147.521 58.0652C154.476 60.7368 159.066 67.4174 159.066 74.8683L159.066 208.503Z" fill="#999999"/>
<path d="M0 25.9967C0 13.4227 12.5642 4.72332 24.334 9.14796L49.5151 18.6144C56.5333 21.2528 61.1811 27.9653 61.1811 35.4631V195.5L11.5458 176.435C4.59047 173.763 0 167.083 0 159.632V25.9967Z" fill="#999999"/>
<path d="M61.1855 169.519C61.1855 182.093 48.6213 190.792 36.8515 186.368L11.6705 176.901C4.6522 174.263 0.00446701 167.55 0.00446701 160.053L0.00446701 0.015625L49.6397 19.0808C56.5951 21.7524 61.1855 28.4331 61.1855 35.8839L61.1855 169.519Z" fill="#999999"/>
</svg>
