<svg width="22" height="22" viewBox="0 0 22 22" fill="none" xmlns="http://www.w3.org/2000/svg">
<path d="M21.0292 7.62491C21.6641 7.62491 22 7.27706 22 6.64174V3.70452C22 1.23484 20.7536 0 18.2373 0H15.3136C14.6786 0 14.3315 0.347842 14.3315 0.959124C14.3315 1.58268 14.6791 1.93052 15.3136 1.93052H18.2133C19.3876 1.93052 20.0706 2.56585 20.0706 3.81296V6.64174C20.0706 7.27758 20.4182 7.62491 21.0292 7.62491ZM0.971348 7.62491C1.59454 7.62491 1.92991 7.27706 1.92991 6.64174V3.81296C1.92991 2.56585 2.60066 1.93052 3.79899 1.93052H6.69872C7.32192 1.93052 7.66904 1.58268 7.66904 0.959124C7.66904 0.347842 7.32141 0 6.69872 0H3.76321C1.27093 0 0.000511442 1.23484 0.000511442 3.70452V6.64225C0.000511442 7.27758 0.348152 7.62491 0.971348 7.62491ZM5.79997 15.8018H15.9367C16.7276 15.8018 17.3028 15.2503 17.3028 14.483V8.39221C17.3028 7.62491 16.7276 7.07347 15.9367 7.07347H14.1157C13.8161 7.07347 13.6602 6.98958 13.4087 6.68982L13.1572 6.37779C12.8811 6.03046 12.5457 5.87495 12.1388 5.87495H9.62248C9.19099 5.87495 8.85562 6.03046 8.57956 6.3783L8.32803 6.69034C8.0765 6.98958 7.93284 7.07399 7.65729 7.07399H5.79997C5.00909 7.07399 4.45797 7.62491 4.45797 8.39221V14.4835C4.45797 15.2508 5.00909 15.8018 5.79997 15.8018ZM10.8806 14.0395C9.2866 14.0395 7.99266 12.7331 7.99266 11.1386C7.99266 9.51962 9.28659 8.22493 10.8801 8.22493C12.4982 8.22493 13.7798 9.51962 13.7798 11.1386C13.7806 11.5198 13.7061 11.8973 13.5607 12.2496C13.4152 12.6019 13.2017 12.922 12.9323 13.1915C12.663 13.461 12.3431 13.6747 11.991 13.8202C11.6389 13.9657 11.2616 14.0403 10.8806 14.0395ZM10.8806 13.1883C11.1506 13.1897 11.4181 13.1377 11.6679 13.0353C11.9177 12.9329 12.1449 12.7822 12.3363 12.5917C12.5277 12.4013 12.6797 12.1749 12.7834 11.9255C12.8872 11.6761 12.9407 11.4087 12.9409 11.1386C12.9433 10.8666 12.8917 10.5969 12.7892 10.345C12.6866 10.0931 12.5351 9.86407 12.3435 9.67115C12.1519 9.47823 11.9239 9.32526 11.6728 9.22111C11.4217 9.11695 11.1525 9.06367 10.8806 9.06436C9.74211 9.06436 8.83159 9.9754 8.83159 11.1386C8.83044 11.4082 8.88266 11.6753 8.98524 11.9245C9.08781 12.1737 9.2387 12.4002 9.42921 12.5907C9.61972 12.7813 9.84606 12.9322 10.0952 13.0348C10.3443 13.1374 10.6112 13.1896 10.8806 13.1883ZM3.76269 22H6.69821C7.3214 22 7.66853 21.6522 7.66853 21.0409C7.66853 20.4173 7.32089 20.07 6.69821 20.07H3.79848C2.60014 20.07 1.9294 19.4342 1.9294 18.1875V15.3583C1.9294 14.7224 1.58176 14.3751 0.970836 14.3751C0.335882 14.3751 0 14.7229 0 15.3583V18.2832C0 20.7652 1.27042 22 3.76269 22ZM15.313 22H18.2373C20.7531 22 21.9995 20.7529 21.9995 18.2832V15.3583C21.9995 14.7224 21.6519 14.3751 21.0287 14.3751C20.4055 14.3751 20.0701 14.7229 20.0701 15.3583V18.187C20.0701 19.4342 19.3871 20.0695 18.2128 20.0695H15.313C14.6781 20.0695 14.331 20.4173 14.331 21.0409C14.331 21.6522 14.6786 22 15.313 22Z" fill="#757474"/>
</svg>
