<svg width="18" height="24" viewBox="0 0 18 24" fill="none" xmlns="http://www.w3.org/2000/svg">
<path d="M10.9671 0C11.2823 -4.69651e-09 11.5944 0.0620789 11.8856 0.182692C12.1767 0.303305 12.4413 0.480091 12.6642 0.702955C12.8871 0.925819 13.0638 1.1904 13.1845 1.48158C13.3051 1.77277 13.3671 2.08486 13.3671 2.40004C13.3671 2.71522 13.3051 3.02731 13.1845 3.31849C13.0638 3.60968 12.8871 3.87426 12.6642 4.09712C12.4413 4.31999 12.1767 4.49677 11.8856 4.61738C11.5944 4.738 11.2823 4.80008 10.9671 4.80008C10.6519 4.80008 10.3398 4.738 10.0486 4.61738C9.75746 4.49677 9.49289 4.31999 9.27002 4.09712C9.04716 3.87426 8.87037 3.60968 8.74976 3.31849C8.62914 3.02731 8.56707 2.71522 8.56707 2.40004C8.56707 2.08486 8.62914 1.77277 8.74976 1.48158C8.87037 1.1904 9.04716 0.925819 9.27002 0.702955C9.49289 0.480091 9.75746 0.303305 10.0486 0.182692C10.3398 0.0620789 10.6519 -4.69651e-09 10.9671 0ZM5.2713 8.91443C5.12987 8.91443 5.00558 9.00014 4.95415 9.12872L4.01128 11.4816C3.72842 12.1845 2.93126 12.5273 2.22839 12.2445C1.52552 11.9616 1.18266 11.1645 1.46552 10.4616L2.40411 8.1087C2.87555 6.93868 4.00699 6.17153 5.2713 6.17153H9.44137C10.6628 6.17153 11.79 6.81868 12.4028 7.87298L13.8086 10.2859H16.4486C17.2072 10.2859 17.8201 10.8987 17.8201 11.6573C17.8201 12.4159 17.2072 13.0288 16.4486 13.0288H13.8086C12.8314 13.0288 11.9314 12.5102 11.4385 11.6659L11.01 10.933L10.1228 13.9502L13.3543 14.9188C14.5414 15.2745 15.1457 16.5903 14.6443 17.726L12.2186 23.1861C11.91 23.8804 11.1 24.189 10.41 23.8804C9.71994 23.5718 9.40708 22.7618 9.71566 22.0718L11.8243 17.3231L7.7142 16.0888C6.31274 15.6688 5.48559 14.2159 5.84131 12.7973L6.81418 8.91443H5.27558H5.2713ZM4.92844 16.6717C5.49845 17.3103 6.24417 17.7989 7.12276 18.0603L7.32419 18.1203L7.02847 18.9474C6.77989 19.646 6.34274 20.2675 5.77274 20.7389L2.24125 23.649C1.65838 24.129 0.792655 24.0475 0.312647 23.4647C-0.167361 22.8818 -0.0859312 22.0161 0.496935 21.5361L4.02842 18.626C4.22128 18.4674 4.36271 18.2617 4.44843 18.0303L4.92844 16.6717Z" fill="#757474"/>
</svg>
