<svg width="18" height="20" viewBox="0 0 18 20" fill="none" xmlns="http://www.w3.org/2000/svg">
<path d="M4.5 2.77778V1.66667C4.5 0.555556 5.0625 0 6.1875 0H11.8125C12.9375 0 13.5 0.555556 13.5 1.66667V2.77778C13.5 3.88889 12.9375 4.44444 11.8125 4.44444H6.1875C5.0625 4.44444 4.5 3.88889 4.5 2.77778ZM18 5.55556V16.6667C18 18.8889 16.875 20 14.625 20H3.375C1.125 20 0 18.8889 0 16.6667V5.55556C0 3.62 0.845879 2.53001 2.548 2.28556C2.68413 2.26556 2.8125 2.37665 2.8125 2.51221V2.77669C2.8125 4.79892 4.14 6.11003 6.1875 6.11003H11.8125C13.86 6.11003 15.1875 4.79892 15.1875 2.77669V2.51221C15.1875 2.37665 15.317 2.26556 15.452 2.28556C17.1541 2.53001 18 3.62 18 5.55556ZM10.9688 14.4444C10.9688 13.9844 10.5907 13.6111 10.125 13.6111H5.625C5.15925 13.6111 4.78125 13.9844 4.78125 14.4444C4.78125 14.9044 5.15925 15.2778 5.625 15.2778H10.125C10.5907 15.2778 10.9688 14.9044 10.9688 14.4444ZM13.2188 10C13.2188 9.54 12.8407 9.16667 12.375 9.16667H5.625C5.15925 9.16667 4.78125 9.54 4.78125 10C4.78125 10.46 5.15925 10.8333 5.625 10.8333H12.375C12.8407 10.8333 13.2188 10.46 13.2188 10Z" fill="#757474"/>
</svg>
