<svg width="27" height="27" viewBox="0 0 27 27" fill="none" xmlns="http://www.w3.org/2000/svg">
<path d="M23.0963 15.3114C23.0963 15.3114 23.625 16.0761 23.625 17.3136C23.625 19.3949 22.0725 21.105 20.0587 21.3525C19.5862 22.77 18.5513 23.625 16.875 23.625C15.75 23.625 14.3438 22.7589 14.3438 21.2289V19.125C14.3438 17.4487 16.0875 16.5262 16.1325 16.5037C16.5487 16.2899 16.7175 15.7837 16.5038 15.3674C16.3013 14.9512 15.795 14.7826 15.3788 14.9963C15.3225 15.0188 14.8725 15.255 14.3438 15.705V13.5C14.3438 11.8237 16.0875 10.9012 16.1325 10.8787C16.5487 10.6649 16.7175 10.1587 16.5038 9.7424C16.3013 9.32615 15.795 9.15759 15.3788 9.37134C15.3225 9.39384 14.8725 9.62996 14.3438 10.08V5.15259C14.3438 3.78009 15.2437 3.375 15.75 3.375C18.2587 3.375 19.0013 5.88373 19.0013 5.88373C19.0013 5.88373 21.375 6.75008 21.375 9.36008C21.375 9.67508 21.3413 9.97888 21.2625 10.2601C22.635 10.6876 23.625 11.9813 23.625 13.5113C23.625 14.1863 23.0963 15.3114 23.0963 15.3114ZM11.6212 9.37134C11.6775 9.39384 12.1275 9.62996 12.6562 10.08V5.15259C12.6562 3.78009 11.7563 3.375 11.25 3.375C8.74125 3.375 7.99873 5.88373 7.99873 5.88373C7.99873 5.88373 5.625 6.75008 5.625 9.36008C5.625 9.67508 5.65872 9.97888 5.73747 10.2601C4.36497 10.6876 3.375 11.9813 3.375 13.5113C3.375 14.1863 3.90372 15.3114 3.90372 15.3114C3.90372 15.3114 3.375 16.0761 3.375 17.3136C3.375 19.3949 4.92755 21.105 6.9413 21.3525C7.4138 22.77 8.44875 23.625 10.125 23.625C11.25 23.625 12.6562 22.7589 12.6562 21.2289V19.125C12.6562 17.4375 10.89 16.5149 10.8675 16.5037C10.4513 16.2899 10.2937 15.7837 10.4962 15.3674C10.71 14.9512 11.2162 14.7826 11.6212 14.9963C11.6775 15.0188 12.1275 15.255 12.6562 15.705V13.5C12.6562 11.8125 10.89 10.8899 10.8675 10.8787C10.4513 10.6649 10.2937 10.1587 10.4962 9.7424C10.71 9.32615 11.2162 9.15759 11.6212 9.37134Z" fill="#757474"/>
</svg>
