<svg width="19" height="26" viewBox="0 0 19 26" fill="none" xmlns="http://www.w3.org/2000/svg">
<path d="M15.09 23.1422C13.6841 24.4294 12.0956 25.1415 10.1419 25.0411C9.95021 25.032 9.71284 24.9589 9.53026 24.9589C9.28377 24.9589 8.99163 25.032 8.74514 25.0411C4.1166 25.2602 1.19523 20.5038 0.254917 16.5417C-0.639752 12.7896 0.802674 8.47146 4.8652 7.4855C6.39892 7.1112 7.20229 7.3942 8.64472 7.7046C9.77675 7.94196 10.2241 7.66808 11.2557 7.44898C15.0626 6.65473 18.3218 9.22919 18.906 12.9631C19.4447 16.3683 17.6005 20.8325 15.0991 23.1422H15.09Z" fill="#757474"/>
<path d="M14.422 0.00761729C14.4129 1.13052 14.2486 2.30819 13.5456 3.22112C12.8427 4.13405 11.6467 4.49922 10.5421 4.554C10.4234 4.554 9.72046 4.57225 9.68394 4.52661C9.6383 3.48587 9.83914 2.28994 10.4599 1.44091C11.382 0.181074 12.9431 -0.0745462 14.422 0.0167466V0.00761729Z" fill="#757474"/>
</svg>
