<svg width="25" height="25" viewBox="0 0 25 25" fill="none" xmlns="http://www.w3.org/2000/svg">
<path d="M11.9954 3.0625V7.14583C11.9954 9.27938 10.454 11.0454 8.42253 11.4027V21.4375C8.42253 21.856 8.07544 22.2031 7.6569 22.2031C7.23836 22.2031 6.89128 21.856 6.89128 21.4375V11.4027C4.85982 11.0352 3.31836 9.26917 3.31836 7.14583V3.0625C3.31836 2.64396 3.66544 2.29688 4.08398 2.29688C4.50253 2.29688 4.84961 2.64396 4.84961 3.0625V7.14583H5.61523V3.0625C5.61523 2.64396 5.96232 2.29688 6.38086 2.29688C6.7994 2.29688 7.14648 2.64396 7.14648 3.0625V7.14583H7.99376V3.0625C7.99376 2.64396 8.34085 2.29688 8.75939 2.29688C9.17793 2.29688 9.52501 2.64396 9.52501 3.0625V7.14583H10.4642V3.0625C10.4642 2.64396 10.8113 2.29688 11.2298 2.29688C11.6484 2.29688 11.9954 2.64396 11.9954 3.0625ZM20.8869 7.62563L20.6317 5.53291C20.4275 3.82812 19.0188 2.55208 17.3548 2.55208C15.6909 2.55208 14.2821 3.83833 14.078 5.53291L13.8227 7.62563C13.6696 8.88125 13.935 9.94292 14.5884 10.6779C15.0988 11.2496 15.8032 11.5865 16.6913 11.6988V21.4477C16.6913 21.8662 17.0384 22.2133 17.4569 22.2133C17.8754 22.2133 18.2225 21.8662 18.2225 21.4477V11.6783C19.0188 11.5456 19.6517 11.2088 20.1213 10.6779C20.7746 9.94292 21.04 8.89146 20.8869 7.62563Z" fill="#757474"/>
</svg>
