<svg width="26" height="22" viewBox="0 0 26 22" fill="none" xmlns="http://www.w3.org/2000/svg">
<path d="M25.0392 9.95634C25.0392 9.95634 25.0392 10.0944 25.0392 10.125C25.0392 10.2171 24.9625 10.3704 24.9471 10.4778C24.8705 10.9225 24.9625 11.398 24.9471 11.8581C24.9471 11.9194 24.9471 11.9808 24.9165 12.0574C24.6404 12.2108 24.5331 12.2261 24.303 12.0268C23.797 11.582 23.2909 10.7845 22.8461 10.2477C22.7848 10.1711 22.6621 10.125 22.6621 10.0177C22.6621 9.87966 22.8308 9.49625 22.9535 9.4349C23.0302 9.40423 23.2142 9.38889 23.3062 9.37356C23.5823 9.34288 23.9196 9.31221 24.211 9.29688C24.5177 9.29688 25.0085 9.66495 25.0545 9.97168L25.0392 9.95634Z" fill="#757474"/>
<path d="M12.6471 11.1377L12.4477 16.6281C12.0643 17.0115 11.6043 16.5668 11.2669 16.3214C10.8068 15.984 10.3314 15.6006 9.90199 15.2325C9.71796 15.0791 9.27322 14.7571 9.15054 14.5884C8.90516 14.2663 9.08919 13.7755 8.95117 13.4228L11.957 10.877H12.0183L12.6624 11.153L12.6471 11.1377Z" fill="#757474"/>
<path d="M19.9151 3.02026C20.2832 4.46189 20.8046 5.90352 21.1113 7.36048C21.1573 7.59053 21.2493 7.95861 21.2493 8.17332C21.2493 8.64875 20.4672 8.26534 20.2678 8.17332C19.1483 7.60587 18.1668 6.71635 17.0166 6.19491C16.986 6.16424 16.8633 5.55078 16.8633 5.4741C16.9093 4.96799 18.2282 3.72574 18.6116 3.28098C18.7342 3.14296 18.8263 3.00493 18.9336 2.85156H19.0103L19.8998 3.0356L19.9151 3.02026Z" fill="#757474"/>
<path d="M9.57751 5.36667C9.57751 5.47403 9.57751 5.56605 9.57751 5.6734C9.62352 5.93412 9.94557 6.25619 9.9149 6.48624C9.86889 6.86965 9.30147 7.97387 9.1021 8.35728C9.05609 8.4493 8.91807 8.71002 8.82606 8.7407C8.73404 8.77137 8.61136 8.7407 8.50401 8.80204C8.31998 8.86339 8.31998 9.04743 8.0286 9.0781C7.4305 9.13944 6.8324 8.92473 6.23431 8.94007L5.71289 8.14257V7.88185C5.95826 7.13037 6.20364 6.34821 6.47968 5.59672C6.60237 5.28999 6.77106 4.64586 7.13912 4.59985C7.95192 4.4925 8.81072 5.13663 9.56218 5.38201L9.57751 5.36667Z" fill="#757474"/>
<path d="M13.0132 11.141C13.1513 11.0797 13.5653 11.003 13.6727 11.1103C13.7034 11.1563 13.734 11.2484 13.78 11.3097C14.3321 12.1379 15.2983 13.1041 15.7123 13.9476C15.9424 14.4077 15.6663 14.3923 15.605 14.7911C15.5743 15.0365 15.697 15.3125 15.5436 15.5426C15.1603 15.8186 14.7462 16.0793 14.3475 16.3247C14.1634 16.4321 13.4733 16.8768 13.32 16.8768C13.1206 16.8922 12.7832 16.7235 12.7832 16.5088C12.7832 16.2941 12.8292 15.9873 12.8292 15.7573C12.8752 14.5304 12.9212 13.3188 12.9826 12.0919C12.9826 11.7698 12.9826 11.4477 13.0132 11.1257V11.141Z" fill="#757474"/>
<path d="M5.02576 10.1411C5.02576 10.1411 5.34782 10.0645 5.45517 10.0951C5.6392 10.1411 6.03793 10.862 6.14528 11.0613C6.37531 11.4601 6.59001 11.8895 6.82005 12.2882C6.9274 12.4723 7.1421 12.733 7.21878 12.9017C7.34147 13.1778 7.1421 13.2851 7.06543 13.5152C6.97341 13.7605 7.06543 13.8986 7.03475 14.1286C7.00408 14.328 6.57468 14.5427 6.40599 14.6501C5.86923 14.9721 5.31714 15.2482 4.78039 15.5549C4.51968 15.7083 4.56569 15.785 4.2283 15.6776C4.09028 15.6316 3.90625 15.5396 3.90625 15.3709C3.90625 15.0028 4.04427 14.512 4.12095 14.144C4.38166 12.8557 4.68838 11.5828 4.97976 10.2945C4.97976 10.2485 5.01043 10.1565 5.05644 10.1258L5.02576 10.1411Z" fill="#757474"/>
<path d="M19.4235 21.7056C19.1474 21.4142 18.856 21.0922 18.5953 20.7854C18.3193 20.4634 17.7979 19.9266 17.5985 19.5739C17.4451 19.3131 17.6598 19.0678 17.5218 18.7764C17.4298 18.5923 17.2304 18.6383 17.1538 18.4696C17.0618 18.2703 17.0157 17.7182 17.0004 17.4881C16.9697 17.166 16.9391 16.7213 16.9697 16.4146C17.0004 16.1078 17.2151 15.9545 17.5065 15.9698C17.7672 15.9851 18.396 16.4912 18.626 16.6599C18.7947 16.7826 19.1781 17.0433 19.3008 17.1814C19.4081 17.3041 19.2394 17.6568 19.2548 17.8255C19.3008 18.4236 19.7148 18.5463 20.0522 18.8837C20.2516 19.0678 20.1289 19.0831 20.0982 19.3131C20.0062 20.0493 20.2363 21.0768 20.0369 21.7363C19.8835 22.2271 19.6075 21.9203 19.4081 21.7056H19.4235Z" fill="#757474"/>
<path d="M9.68685 0.230803C10.1623 0.41484 10.7604 0.0774379 11.2358 0.15412C11.3738 0.169457 11.5272 0.430177 11.6652 0.506859C11.8185 0.598878 12.0639 0.568205 12.1713 0.736906C12.3093 0.93628 12.6773 1.85647 12.7387 2.10185C12.9687 3.02204 11.8492 3.94223 11.3124 4.57102C11.0671 4.57102 10.7144 4.61703 10.515 4.44833C10.331 4.29497 10.1316 3.77353 10.0242 3.54348C9.68685 2.77666 9.38014 1.96382 9.13477 1.15099C9.24212 1.0283 9.44148 0.93628 9.5335 0.798252C9.62551 0.644887 9.64085 0.399504 9.71753 0.230803H9.68685Z" fill="#757474"/>
<path d="M18.5219 12.6977C18.1539 13.1118 17.7705 13.5259 17.4331 13.9706C17.3257 14.0933 16.9883 13.9706 16.9423 13.8633C16.8963 13.7559 16.9423 13.4339 16.9423 13.2958C16.973 12.2836 17.019 11.2561 17.0803 10.2439L17.6631 9.6611C18.5679 9.6611 19.5341 9.44639 20.4542 9.46172C21.083 9.47706 20.7609 10.1059 20.5462 10.4126C19.9941 11.1641 19.166 11.9616 18.5219 12.6824V12.6977Z" fill="#757474"/>
<path d="M22.2782 3.96186C22.5389 4.19191 22.815 4.4373 23.137 4.55999C23.1064 4.66734 23.1064 4.82071 23.1217 4.9434C23.1524 5.21945 23.3517 5.55686 23.3517 5.80224C23.3517 6.06296 22.953 6.81445 22.815 7.07517C22.6616 7.36656 22.4776 7.73463 22.3089 7.99535C22.1555 8.2254 22.0942 8.19473 21.8335 8.10271C21.6188 8.01069 21.5881 7.85733 21.5114 7.65795C21.0207 6.32368 20.7907 4.71335 20.3919 3.33307C20.3613 3.25639 20.2539 2.99567 20.2539 2.94966C20.2539 2.90365 20.3306 2.79629 20.3613 2.76562C20.4379 2.68894 20.53 2.6736 20.6373 2.68894C21.0207 2.73495 21.9408 3.68581 22.2782 3.9772V3.96186Z" fill="#757474"/>
<path d="M16.2483 5.06767L15.9263 2.33778C15.9263 1.83168 15.8189 1.23355 15.8803 0.72745C15.8803 0.696777 15.8803 0.681441 15.9109 0.650768C15.9416 0.620095 16.2943 0.359375 16.325 0.359375L18.3953 1.27956L18.7634 2.47581C18.7634 2.47581 18.656 2.64451 18.61 2.70585C18.0273 3.45734 17.3832 4.14748 16.8004 4.89897C16.6624 5.037 16.4477 5.00632 16.279 5.06767H16.2483Z" fill="#757474"/>
<path d="M4.61316 9.87276L3.53965 15.2405C3.47831 15.4552 3.03357 15.4552 2.89555 15.3785C2.83421 15.3479 2.45081 14.8111 2.37413 14.7191C2.26678 14.5811 1.82204 13.9829 1.79137 13.8602C1.7607 13.7529 1.85271 13.5228 1.86805 13.3848C1.88339 13.2468 1.85272 13.1548 1.82204 13.0321L4.19909 9.90343L4.61316 9.85742V9.87276Z" fill="#757474"/>
<path d="M14.3212 9.8688C14.3979 9.85347 14.4745 9.82279 14.5512 9.82279C14.9653 9.76145 15.8854 9.71544 16.2842 9.79212C16.3302 9.79212 16.4835 9.9915 16.5295 10.0375C16.5755 10.0835 16.7442 10.2982 16.7596 10.3442C16.8363 10.5436 16.6676 11.019 16.6522 11.2644C16.6062 11.9699 16.7136 12.7061 16.6522 13.4269C16.6216 13.8716 16.5602 14.1937 16.0541 13.8563L13.9531 10.9117L14.3212 9.88414V9.8688Z" fill="#757474"/>
<path d="M4.95126 7.88551L3.81641 3.49928C3.81641 3.26924 4.04644 3.16188 4.24581 3.17722C4.49118 3.17722 5.56469 3.66799 5.85607 3.79068C5.96342 3.83669 6.28547 3.95938 6.36215 4.02072C6.62286 4.23544 6.42349 5.01759 6.33148 5.30899C6.0861 6.12182 5.70271 6.96533 5.41133 7.76282C5.28864 7.93152 5.11995 7.90085 4.93592 7.90085L4.95126 7.88551Z" fill="#757474"/>
<path d="M3.09219 3.49776C3.09219 3.49776 3.53693 3.74314 3.55226 3.80449L4.54909 7.93C4.54909 7.93 4.34972 8.17538 4.30372 8.17538C3.997 8.2674 3.46025 7.82264 3.21487 7.65394C2.90816 7.43923 2.21805 6.99447 1.97267 6.74909C1.80398 6.58039 1.77331 6.25832 1.78864 6.02828C1.80398 5.64486 2.29473 4.83203 2.49409 4.46396C2.55543 4.34126 3.03084 3.49776 3.09219 3.48242V3.49776Z" fill="#757474"/>
<path d="M11.9249 5.80664L15.2528 6.0827L15.3755 6.12871C15.4368 6.34342 15.3755 6.43544 15.2528 6.5888C14.9307 7.06423 14.44 7.64702 14.0566 8.09177C13.9492 8.21447 13.7499 8.47519 13.5965 8.49052C13.3358 8.5212 13.1364 8.24514 12.7991 8.29115C12.5997 8.32182 12.4617 8.47519 12.3236 8.29115C12.0936 7.99976 11.7716 7.35562 11.6029 7.00288C11.4802 6.74216 11.3421 6.55813 11.4955 6.26673C11.5262 6.20539 11.8482 5.82198 11.8942 5.80664H11.9249Z" fill="#757474"/>
<path d="M17.6587 14.5094C17.6587 14.5094 17.582 14.31 17.6127 14.2333C17.6434 14.126 18.1341 13.6812 18.2415 13.5585C18.9469 12.7917 19.545 11.9175 20.2505 11.1507C20.4345 10.936 20.9406 10.3686 21.186 10.2919C21.2473 10.2765 21.3853 10.2459 21.4467 10.2919L21.1093 12.7457C21.0786 12.8991 21.0173 13.2978 20.9099 13.4052C20.8179 13.4972 20.6492 13.4819 20.5265 13.5739C20.3578 13.7119 20.3885 13.988 20.1738 14.08C19.9438 14.1873 19.4377 14.264 19.1616 14.3254C18.8242 14.4021 18.4255 14.4941 18.0881 14.5401C17.9808 14.5401 17.7201 14.5708 17.628 14.5094H17.6587Z" fill="#757474"/>
<path d="M3.97963 9.55857C3.93362 9.65059 3.87228 9.71193 3.82627 9.78862C3.28952 10.7088 2.58407 11.813 1.83261 12.5952C1.64859 12.7946 1.34187 13.0399 1.0965 12.8099C0.943138 12.6719 0.605751 12.1504 0.467729 11.9511C0.39105 11.8437 0.053662 11.3836 0.0383262 11.2916C0.00765461 11.1382 0.20702 10.4634 0.314371 10.3561C0.375714 10.2947 0.513736 10.2487 0.605751 10.218C1.06582 10.0647 1.63325 9.94198 2.10866 9.83463C2.3387 9.78862 3.87228 9.48189 3.96429 9.54323L3.97963 9.55857Z" fill="#757474"/>
<path d="M1.46412 7.05469C1.64815 7.05469 1.83218 7.08536 1.98554 7.16204C2.55297 7.57613 3.22774 7.92887 3.76449 8.37362C3.87184 8.46564 3.91785 8.48098 3.96386 8.63434C4.04054 8.86439 4.07121 9.01775 3.82584 9.10977C3.2124 9.35516 2.29226 9.50852 1.63282 9.64655C1.3261 9.7079 0.52864 9.90727 0.267931 9.8766C0.129909 9.86126 0.0225582 9.78458 0.00722244 9.64655C-0.0847924 9.0791 0.728005 8.00555 0.988714 7.46877C1.03472 7.39209 1.03472 7.28473 1.08073 7.20805C1.15741 7.11603 1.37211 7.05469 1.47946 7.05469H1.46412Z" fill="#757474"/>
<path d="M22.8931 10.8013C23.2459 11.2 23.6139 11.6141 23.936 12.0282C23.982 12.0895 24.1354 12.2736 24.1507 12.3196C24.166 12.3809 24.1507 12.5189 24.1353 12.5803C24.12 12.6877 24.028 13.1171 23.982 13.1784C23.9513 13.2398 23.8286 13.2551 23.7673 13.2858C23.3072 13.4391 22.3717 13.6845 21.8963 13.7152C21.6203 13.7459 21.4209 13.6999 21.3749 13.3931C21.2829 12.9177 21.4669 12.3349 21.5283 11.8748C21.5896 11.4607 21.6049 10.4332 22.111 10.2952C22.5251 10.1878 22.6784 10.5405 22.8931 10.8013Z" fill="#757474"/>
<path d="M9.41162 9.5876L11.4359 9.83299C11.528 9.879 11.6506 10.4158 11.62 10.5078C11.62 10.5845 11.1446 11.0292 11.0525 11.1212C10.5158 11.6274 9.61098 12.4709 9.01289 12.8543C8.53748 13.161 8.35345 13.0076 8.38412 12.4555C8.41479 11.8727 8.61416 10.9679 8.75218 10.3851C8.84419 10.0017 8.85953 9.95568 9.19692 9.71029C9.25826 9.66428 9.33494 9.61828 9.41162 9.57227V9.5876Z" fill="#757474"/>
<path d="M16.6032 6.54254C16.7258 6.45052 17.0326 6.60388 17.1706 6.64989C17.9527 6.98729 18.9342 7.63143 19.6703 8.10686C19.8697 8.24488 20.5751 8.64363 20.6825 8.797C20.8512 9.01171 20.6825 9.02704 20.4984 9.07305C19.885 9.22642 18.4435 9.33377 17.8454 9.19574C17.4926 9.11906 17.0939 8.90435 16.8792 8.59762L16.4805 6.78792C16.4805 6.78792 16.5878 6.55787 16.6185 6.54254H16.6032Z" fill="#757474"/>
<path d="M8.27646 1.32002C8.79788 1.21267 8.96657 1.70344 9.13526 2.07151C9.3653 2.57761 9.94806 3.8352 10.0247 4.34131C10.1014 4.8014 9.90205 5.00078 9.42664 4.90876C9.11993 4.84741 8.19978 4.44866 7.9084 4.2953C7.35631 4.01924 7.29497 3.62049 7.46366 3.06838C7.58635 2.62362 7.81638 1.94882 8.01575 1.53473C8.07709 1.41204 8.1231 1.33536 8.26112 1.30469L8.27646 1.32002Z" fill="#757474"/>
<path d="M7.55633 12.8833L5.90007 10.0461C5.85406 9.81605 5.90007 9.61668 6.03809 9.43264C6.23745 9.18726 6.28346 9.29461 6.52883 9.30995C7.00424 9.35596 7.95506 9.27928 8.30779 9.64735C8.46114 9.80071 8.46114 10.0001 8.44581 10.2148C8.41514 10.6442 8.30779 11.2117 8.24644 11.6411C8.20044 11.9325 8.13909 12.4539 8.04708 12.73C7.9704 12.9447 7.7557 12.9447 7.55633 12.8833Z" fill="#757474"/>
<path d="M15.639 15.8958C15.961 15.8344 16.4518 16.0951 16.6358 16.3712L16.7432 18.5643C16.3291 18.7944 15.8077 18.5796 15.3936 18.4263C14.9182 18.2576 14.4581 18.0275 13.9827 17.8588C13.676 17.7515 13.4153 17.8128 13.5226 17.3527C13.538 17.276 13.5993 17.23 13.6453 17.184C13.952 16.9233 14.4581 16.6166 14.8108 16.4019C14.9795 16.2945 15.4856 15.9418 15.6236 15.9111L15.639 15.8958Z" fill="#757474"/>
<path d="M6.98529 3.45942C6.8626 3.56678 6.38719 3.6588 6.2185 3.62812C5.92712 3.56678 4.60824 3.01466 4.36287 2.84596C3.93346 2.56991 4.39354 2.27851 4.66958 2.14049C5.34436 1.77241 6.2185 1.37366 6.92394 1.08227C7.03129 1.03626 7.39935 0.86756 7.49137 0.898233C7.64473 0.944242 7.82876 1.20496 7.81342 1.37366C7.79808 1.57304 7.56805 2.07914 7.47603 2.29385C7.35335 2.61592 7.21532 3.01466 7.06197 3.30606C7.04663 3.33673 7.00062 3.42875 6.96995 3.45942H6.98529Z" fill="#757474"/>
<path d="M15.4385 0.757063L15.8219 5.15863C15.8219 5.15863 15.6839 5.1893 15.6226 5.14329C15.4846 5.03594 15.1932 4.72921 15.0705 4.59118C14.6718 4.16176 14.3344 3.68633 13.9203 3.28758C13.6596 3.0422 13.3835 2.96551 13.5676 2.50542C13.6749 2.22936 14.4877 1.30918 14.7178 1.04846C14.9171 0.833745 15.1318 0.527016 15.4385 0.772399V0.757063Z" fill="#757474"/>
<path d="M11.835 5.43514C11.7123 5.23577 11.6203 4.99039 11.6816 4.76034C11.7276 4.59164 12.1724 4.08554 12.3104 3.93217C12.4178 3.80948 12.8932 3.22669 13.0005 3.19602C13.0925 3.18068 13.3226 3.18068 13.3992 3.24203C13.8133 4.00885 14.6721 4.42294 15.2089 5.08241C15.3469 5.25111 15.5769 5.63452 15.2089 5.66519L11.835 5.45048V5.43514Z" fill="#757474"/>
<path d="M9.352 9.21477C9.27532 9.04607 9.21398 8.86203 9.25999 8.66266C9.59738 8.12588 9.84275 7.35906 10.2108 6.85295C10.3642 6.63824 10.8856 6.48488 11.1003 6.63824C11.1463 6.66892 11.2076 6.79161 11.2383 6.85295C11.4223 7.19036 11.591 7.58911 11.7597 7.94184C11.8671 8.15655 12.0971 8.41727 11.9744 8.64732L11.3303 9.41414L9.33667 9.21477H9.352Z" fill="#757474"/>
<path d="M20.4245 16.6574C20.2098 16.6881 19.8877 16.8568 19.673 16.8721C19.6423 16.8721 19.6117 16.8721 19.5963 16.8568L17.7867 15.6452C17.6947 15.5225 17.7867 15.0471 17.9401 14.9704C18.2315 14.8323 18.9676 14.6943 19.3203 14.6176C19.6117 14.5563 20.0717 14.4336 20.3325 14.4336C20.5472 14.4336 20.6545 14.633 20.6698 14.817C20.7312 15.4305 20.4398 16.0439 20.4091 16.6574H20.4245Z" fill="#757474"/>
<path d="M15.558 6.89843C15.558 6.89843 15.7574 6.65304 15.7727 6.63771C15.8187 6.60703 15.926 6.63771 15.9721 6.66838C16.2941 6.86775 16.4628 7.81861 16.4935 8.17135C16.5395 8.58544 16.6008 9.06087 16.1714 9.27558C15.8494 9.44428 14.7759 9.52096 14.4385 9.42894C14.0551 9.33692 13.9631 8.93817 13.9937 8.58544C14.5152 8.03332 15.0212 7.45054 15.558 6.89843Z" fill="#757474"/>
<path d="M7.79828 14.941C7.79828 14.941 7.85962 15.0177 7.85962 15.0637V16.5206C7.85962 16.5973 7.75227 16.582 7.70627 16.6127C7.52224 16.7047 7.46089 16.7967 7.21552 16.7814C6.61742 16.766 5.88131 16.6893 5.28321 16.5973C4.89981 16.536 4.14836 16.444 4.76179 15.9685C5.03784 15.7538 5.51325 15.5084 5.81996 15.3244C6.05 15.1864 6.75545 14.7569 6.98548 14.7263C7.16951 14.7109 7.66026 14.803 7.79828 14.941Z" fill="#757474"/>
<path d="M24.0913 13.6531C24.1373 13.9291 23.8919 14.1592 23.7079 14.3432C23.2478 14.834 22.6804 15.3861 22.1743 15.8462C21.9749 16.0302 21.3001 16.6897 21.1008 16.751C21.0548 16.751 20.7634 16.7971 20.748 16.7817C20.748 16.613 20.748 16.4443 20.7787 16.2756C20.8094 15.9842 20.9014 15.2634 20.9934 15.018C21.0241 14.926 21.5915 14.2819 21.6835 14.2052C21.8982 14.0365 22.803 13.8524 23.1098 13.7911C23.2324 13.7604 24.0452 13.6071 24.0913 13.6531Z" fill="#757474"/>
<path d="M11.7255 17.2903L8.58166 16.9223C7.93755 16.4315 8.2136 15.588 8.19826 14.8979L8.90371 14.8672C9.63983 15.5573 10.5446 16.0481 11.2961 16.7229C11.3881 16.7996 11.6948 17.0603 11.7102 17.1523C11.7102 17.1983 11.7102 17.2443 11.7102 17.2903H11.7255Z" fill="#757474"/>
<path d="M23.8879 5.99385C24.1332 5.96318 24.1179 6.0552 24.1946 6.25457C24.3786 6.69933 24.532 7.29745 24.6393 7.75755C24.6853 7.95692 24.8234 8.34033 24.7773 8.52437C24.67 9.01514 23.7652 8.95379 23.3971 8.96913C23.3051 8.96913 23.0751 9.01514 23.0137 8.9998C22.9677 8.9998 22.8144 8.8311 22.7684 8.78509C22.6303 8.61639 22.4923 8.371 22.5383 8.15629C22.5843 7.95692 22.9677 7.25144 23.0904 7.0214C23.1824 6.83736 23.5198 6.14722 23.6578 6.0552C23.7192 6.00919 23.8112 5.97852 23.8725 5.97852L23.8879 5.99385Z" fill="#757474"/>
<path d="M14.8104 0.216225C14.8104 0.216225 14.887 0.36959 14.841 0.415599C14.3043 0.952376 13.8289 1.51982 13.3074 2.07194C13.2768 2.10261 13.1694 2.20997 13.1388 2.19463C13.0927 2.17929 12.8627 1.67319 12.8167 1.58117C12.7247 1.36646 12.4486 0.84502 12.418 0.645646C12.418 0.5843 12.418 0.522955 12.418 0.461609C12.418 0.430936 12.5713 0.154879 12.5867 0.139543C12.648 0.0935335 13.3535 0.0168512 13.4761 0.00151471C13.7522 0.00151471 14.6263 -0.0291582 14.8104 0.185552V0.216225Z" fill="#757474"/>
</svg>
