<svg width="21" height="22" viewBox="0 0 21 22" fill="none" xmlns="http://www.w3.org/2000/svg">
<path d="M12.9746 2.20898L14.8086 2.35427L12.8293 4.04289L14.6633 4.18817" stroke="#757474" stroke-width="0.552597" stroke-miterlimit="10" stroke-linecap="round" stroke-linejoin="round"/>
<path d="M17.0215 0.496094L19.6127 1.09364L16.4239 3.08714L19.0151 3.68469" stroke="#757474" stroke-width="0.798733" stroke-miterlimit="10" stroke-linecap="round" stroke-linejoin="round"/>
<path d="M9.83203 4.20703L11.2606 4.14338L9.89569 5.63556L11.3243 5.5719" stroke="#757474" stroke-width="0.429529" stroke-miterlimit="10" stroke-linecap="round" stroke-linejoin="round"/>
<path d="M20.5895 11.726C20.5443 11.7049 20.4944 11.6956 20.4446 11.699C20.3947 11.7024 20.3466 11.7185 20.3047 11.7456L19.6826 12.1549C18.6144 12.8872 17.4267 13.4278 16.1729 13.7525C13.3508 14.4335 9.65775 13.5168 8.35472 10.4688C7.04514 7.38168 7.91272 3.45312 8.80978 0.375794C8.82446 0.323092 8.82427 0.267354 8.80922 0.214756C8.79416 0.162159 8.76484 0.114756 8.72449 0.0778021C8.68415 0.0408482 8.63436 0.0157864 8.58064 0.00539421C8.52693 -0.00499794 8.47138 -0.000314497 8.42017 0.0189254C5.34985 1.12706 -3.06644 7.15177 2.60568 16.1555C3.0877 16.0199 3.59807 16.0222 4.07888 16.162C5.00382 14.5302 7.54557 13.8787 8.96696 14.6954C11.0066 15.5825 10.9248 17.7334 10.8265 18.4798C11.2992 18.6556 11.6949 18.9919 11.9445 19.43C12.1941 19.8681 12.2817 20.3801 12.1918 20.8762C16.4205 20.6251 20.8772 16.3495 20.7599 11.952C20.7531 11.9029 20.7339 11.8564 20.7041 11.8168C20.6743 11.7773 20.6348 11.746 20.5895 11.726Z" fill="#757474"/>
<path d="M10.4128 18.9561C10.3414 18.9337 10.2812 18.8851 10.2441 18.8202C10.2071 18.7552 10.196 18.6786 10.2131 18.6058C10.236 18.5043 10.7631 16.1013 8.7169 15.2273C8.29318 14.9981 7.81207 14.8969 7.33196 14.9359C5.76978 14.9509 4.20518 16.2054 4.17587 17.7677C4.17744 17.8452 4.14842 17.9203 4.09508 17.9765C4.04174 18.0328 3.96838 18.0658 3.89089 18.0684C3.81339 18.071 3.738 18.0429 3.68104 17.9903C3.62408 17.9377 3.59013 17.8648 3.58655 17.7873C3.58112 17.4128 3.65476 17.0413 3.80268 16.6972C3.49408 16.618 3.17029 16.6194 2.86241 16.7014C2.55453 16.7834 2.2729 16.9431 2.04457 17.1653C1.80871 17.3498 1.62429 17.5918 1.50904 17.8682C1.39379 18.1446 1.35158 18.4459 1.38649 18.7433C1.39827 18.8187 1.38026 18.8957 1.33627 18.958C1.29227 19.0203 1.22574 19.0631 1.15077 19.0772C0.792119 19.1589 0.476756 19.3712 0.266227 19.6728C0.0556983 19.9744 -0.0348885 20.3436 0.0121457 20.7084C0.05918 21.0732 0.24046 21.4074 0.520607 21.6457C0.800754 21.8841 1.15966 22.0095 1.52729 21.9975L10.0036 21.9975C10.3974 22.0205 10.7852 21.8919 11.0872 21.638C11.3892 21.3841 11.5825 21.0242 11.6274 20.6323C11.6543 20.2547 11.5473 19.8797 11.3252 19.5731C11.1031 19.2666 10.78 19.0481 10.4128 18.9561Z" fill="#757474"/>
</svg>
