<svg width="22" height="22" viewBox="0 0 22 22" fill="none" xmlns="http://www.w3.org/2000/svg">
<path d="M8.0355 22C7.48255 22 7.00961 21.8035 6.61666 21.4106C6.22289 21.0168 6.026 20.5434 6.026 19.9905V15.974H2.0095C1.45655 15.974 0.983194 15.7771 0.589419 15.3833C0.196473 14.9904 0 14.5179 0 13.9657V11.6217H6.92008L9.22552 15.0787C9.2819 15.1657 9.35153 15.2329 9.43443 15.2801C9.51733 15.3274 9.6135 15.3514 9.72292 15.3522C9.86634 15.3522 9.99235 15.3133 10.1009 15.2354C10.2095 15.1574 10.2891 15.0497 10.3397 14.912L12.425 8.65725L14.1995 11.3258C14.2625 11.4137 14.3409 11.485 14.4345 11.5397C14.5282 11.5944 14.6269 11.6217 14.7305 11.6217H22V13.9657C22 14.5179 21.8035 14.9904 21.4106 15.3833C21.0168 15.7771 20.5439 15.974 19.9917 15.974H15.974V19.9905C15.974 20.5434 15.7771 21.0168 15.3833 21.4106C14.9904 21.8035 14.5179 22 13.9657 22H8.0355ZM9.57495 13.344L7.76939 10.6506C7.71384 10.5644 7.64462 10.4976 7.56172 10.4504C7.47882 10.4031 7.38141 10.3791 7.2695 10.3782H0V8.0355C0 7.48255 0.196473 7.00961 0.589419 6.61666C0.983194 6.22289 1.45655 6.026 2.0095 6.026H6.026V2.0095C6.026 1.45655 6.22289 0.983194 6.61666 0.589419C7.00961 0.196473 7.48214 0 8.03425 0H13.9657C14.5179 0 14.9904 0.196473 15.3833 0.589419C15.7771 0.983194 15.974 1.45655 15.974 2.0095V6.026H19.9905C20.5434 6.026 21.0168 6.22289 21.4106 6.61666C21.8035 7.00961 22 7.48214 22 8.03425V10.3782H15.0488L12.7658 6.92132C12.7127 6.84008 12.6381 6.77417 12.5419 6.7236C12.4458 6.67303 12.3442 6.64775 12.2373 6.64775C12.0988 6.64775 11.9807 6.68671 11.8829 6.76464C11.7851 6.84256 11.7105 6.95033 11.6591 7.08795L9.57495 13.344Z" fill="#757474"/>
</svg>
