<svg width="56" height="43" viewBox="0 0 56 43" fill="none" xmlns="http://www.w3.org/2000/svg">
<path d="M46.7627 3.50033C43.2624 1.8686 39.4726 0.684275 35.5248 0C35.4554 0.00098879 35.3892 0.029368 35.3406 0.0789554C34.8669 0.947458 34.3142 2.07914 33.9457 2.94765C29.7585 2.3164 25.5002 2.3164 21.313 2.94765C20.9445 2.05282 20.3918 0.947458 19.8918 0.0789554C19.8655 0.0263188 19.7865 0 19.7076 0C15.7598 0.684275 11.9963 1.8686 8.46965 3.50033C8.44333 3.50033 8.41702 3.52665 8.3907 3.55297C1.23213 14.2645 -0.741743 24.6865 0.232033 35.0033C0.232033 35.0559 0.258351 35.1086 0.310987 35.1349C5.04828 38.6089 9.60134 40.7144 14.1018 42.1092C14.1807 42.1356 14.2597 42.1092 14.286 42.0566C15.3387 40.6091 16.2862 39.0826 17.102 37.4772C17.1547 37.3719 17.102 37.2667 16.9968 37.2404C15.4966 36.6614 14.0754 35.9771 12.6806 35.1875C12.5753 35.1349 12.5753 34.977 12.6543 34.898C12.9438 34.6875 13.2333 34.4506 13.5228 34.2401C13.5754 34.1874 13.6544 34.1874 13.707 34.2138C22.7605 38.3457 32.5246 38.3457 41.4728 34.2138C41.5254 34.1874 41.6044 34.1874 41.657 34.2401C41.9465 34.4769 42.236 34.6875 42.5255 34.9244C42.6308 35.0033 42.6308 35.1612 42.4992 35.2138C41.1306 36.0297 39.6831 36.6877 38.183 37.2667C38.0777 37.293 38.0514 37.4246 38.0777 37.5035C38.9199 39.109 39.8674 40.6354 40.8938 42.0829C40.9727 42.1092 41.0517 42.1356 41.1306 42.1092C45.6574 40.7144 50.2104 38.6089 54.9477 35.1349C55.0004 35.1086 55.0267 35.0559 55.0267 35.0033C56.1847 23.0811 53.1054 12.738 46.868 3.55297C46.8417 3.52665 46.8154 3.50033 46.7627 3.50033ZM18.4706 28.7132C15.7598 28.7132 13.4964 26.213 13.4964 23.1338C13.4964 20.0545 15.7072 17.5543 18.4706 17.5543C21.2603 17.5543 23.4711 20.0808 23.4447 23.1338C23.4447 26.213 21.234 28.7132 18.4706 28.7132ZM36.8144 28.7132C34.1036 28.7132 31.8403 26.213 31.8403 23.1338C31.8403 20.0545 34.051 17.5543 36.8144 17.5543C39.6042 17.5543 41.8149 20.0808 41.7886 23.1338C41.7886 26.213 39.6042 28.7132 36.8144 28.7132Z" fill="white" fill-opacity="0.5"/>
</svg>
