<svg width="47" height="42" viewBox="0 0 47 42" fill="none" xmlns="http://www.w3.org/2000/svg">
<path d="M24.2273 0C22.9785 0 21.84 0.654449 19.5669 1.95757L7.11543 9.09106C4.97096 10.2948 3.18388 12.0397 1.93458 14.1496C0.685274 16.2595 0.0179617 18.6597 0 21.1079L0 21.5622C0.0181012 24.0072 0.683879 26.4044 1.9303 28.5123C3.17672 30.6202 4.95977 32.3645 7.09994 33.5694L14.8891 38.0408C19.4469 40.6586 21.7258 41.9713 24.2292 41.9713C26.7308 41.9733 29.0116 40.6663 33.5713 38.0485L41.8019 33.3268C44.0808 32.0179 45.2173 31.3635 45.8427 30.2875C46.4681 29.2096 46.47 27.9007 46.4681 25.2829V20.2205C46.4685 19.8693 46.3759 19.5242 46.1997 19.2198C46.0235 18.9154 45.7699 18.6624 45.4642 18.4863C45.1586 18.3102 44.8117 18.2171 44.4584 18.2164C44.1051 18.2157 43.7579 18.3075 43.4515 18.4824L26.5526 28.1528C25.4161 28.8015 24.8488 29.1287 24.2273 29.1287C23.6019 29.1287 23.0346 28.8054 21.8961 28.1548L10.465 21.6238C9.88996 21.2946 9.60147 21.131 9.37106 21.1021C9.11648 21.0687 8.85793 21.1201 8.63583 21.2483C8.41374 21.3764 8.24062 21.5741 8.14353 21.8105C8.0564 22.0241 8.0564 22.3533 8.06028 23.0135C8.06415 23.4986 8.06028 23.7411 8.10868 23.9644C8.2113 24.4629 8.47462 24.9133 8.85798 25.2482C9.0303 25.3965 9.24134 25.5177 9.66343 25.7603L21.8903 32.786C23.0307 33.4404 23.6019 33.7676 24.2273 33.7676C24.8527 33.7676 25.4219 33.4404 26.5623 32.7879L41.5483 24.1857C41.9394 23.9624 42.133 23.8547 42.2782 23.9355C42.4234 24.0202 42.4234 24.2435 42.4234 24.69V26.9864C42.4234 27.6408 42.4254 27.9681 42.2685 28.2356C42.1136 28.5051 41.829 28.6668 41.2579 28.994L28.9012 36.0871C26.6204 37.396 25.48 38.0504 24.2292 38.0504C22.9785 38.0504 21.8361 37.396 19.5592 36.0832L8.00026 29.4386L7.917 29.3905C6.72576 28.6983 5.73658 27.7094 5.047 26.5212C4.35742 25.3331 3.99127 23.9868 3.98464 22.6151V20.4092C3.9852 19.6514 4.18576 18.907 4.56629 18.2504C4.94682 17.5937 5.49399 17.0479 6.15315 16.6673C6.73622 16.3318 7.39793 16.1549 8.07163 16.1546C8.74533 16.1543 9.40722 16.3304 9.99064 16.6653L19.5669 22.1666C21.84 23.4735 22.9785 24.128 24.2273 24.1299C25.4761 24.1299 26.6146 23.4755 28.8935 22.1723L43.3799 13.8839C43.7016 13.6998 43.9688 13.4346 44.1547 13.1151C44.3405 12.7956 44.4383 12.4331 44.4383 12.064C44.4383 11.6949 44.3405 11.3324 44.1547 11.0129C43.9688 10.6934 43.7016 10.4282 43.3799 10.244L28.8877 1.94987C26.6127 0.650599 25.4761 0 24.2292 0H24.2273Z" fill="white" fill-opacity="0.5"/>
</svg>
