<svg width="42" height="42" viewBox="0 0 42 42" fill="none" xmlns="http://www.w3.org/2000/svg">
<path d="M20.9857 16.7885C23.212 16.7885 25.3471 15.9041 26.9213 14.3299C28.4955 12.7557 29.3799 10.6206 29.3799 8.39427C29.3799 6.16797 28.4955 4.03285 26.9213 2.45862C25.3471 0.884394 23.212 0 20.9857 0C18.7594 0 16.6243 0.884394 15.05 2.45862C13.4758 4.03285 12.5914 6.16797 12.5914 8.39427C12.5914 10.6206 13.4758 12.7557 15.05 14.3299C16.6243 15.9041 18.7594 16.7885 20.9857 16.7885ZM7.34498 23.0842C8.73642 23.0842 10.0709 22.5315 11.0548 21.5476C12.0387 20.5637 12.5914 19.2293 12.5914 17.8378C12.5914 16.4464 12.0387 15.1119 11.0548 14.128C10.0709 13.1441 8.73642 12.5914 7.34498 12.5914C5.95355 12.5914 4.6191 13.1441 3.63521 14.128C2.65131 15.1119 2.09857 16.4464 2.09857 17.8378C2.09857 19.2293 2.65131 20.5637 3.63521 21.5476C4.6191 22.5315 5.95355 23.0842 7.34498 23.0842ZM39.8728 17.8378C39.8728 19.2293 39.32 20.5637 38.3361 21.5476C37.3522 22.5315 36.0178 23.0842 34.6264 23.0842C33.2349 23.0842 31.9005 22.5315 30.9166 21.5476C29.9327 20.5637 29.3799 19.2293 29.3799 17.8378C29.3799 16.4464 29.9327 15.1119 30.9166 14.128C31.9005 13.1441 33.2349 12.5914 34.6264 12.5914C36.0178 12.5914 37.3522 13.1441 38.3361 14.128C39.32 15.1119 39.8728 16.4464 39.8728 17.8378ZM20.9857 18.8871C23.7685 18.8871 26.4374 19.9926 28.4052 21.9604C30.373 23.9282 31.4785 26.5971 31.4785 29.3799V41.9713H10.4928V29.3799C10.4928 26.5971 11.5983 23.9282 13.5661 21.9604C15.5339 19.9926 18.2028 18.8871 20.9857 18.8871ZM6.2957 29.3799C6.2957 27.9256 6.50556 26.5217 6.90009 25.1954L6.54333 25.2248C4.74461 25.4223 3.08209 26.2768 1.87457 27.6245C0.667054 28.9722 -0.000469573 30.7182 2.47836e-07 32.5278V41.9713H6.2957V29.3799ZM41.9713 41.9713V32.5278C41.9716 30.6566 41.2577 28.8559 39.9753 27.4933C38.693 26.1306 36.939 25.3087 35.0712 25.1954C35.4637 26.5217 35.6756 27.9256 35.6756 29.3799V41.9713H41.9713Z" fill="white" fill-opacity="0.5"/>
</svg>
