<svg width="50" height="43" viewBox="0 0 50 43" fill="none" xmlns="http://www.w3.org/2000/svg">
<path fill-rule="evenodd" clip-rule="evenodd" d="M44.3421 0.289111C44.9503 0.0331187 45.616 -0.0551714 46.2699 0.0334294C46.9238 0.12203 47.542 0.384284 48.0601 0.792893C48.5783 1.2015 48.9774 1.74153 49.2161 2.35677C49.4547 2.972 49.5241 3.63996 49.417 4.29111L43.8351 38.1506C43.2936 41.4166 39.7102 43.2896 36.715 41.6628C34.2096 40.3017 30.4883 38.2047 27.1412 36.0166C25.4676 34.9214 20.341 31.4141 20.9711 28.9184C21.5126 26.7845 30.1265 18.7657 35.0488 13.9983C36.9808 12.1253 36.0997 11.0448 33.8183 12.7677C28.1527 17.0453 19.0563 23.5504 16.0488 25.3816C13.3957 26.9962 12.0125 27.2718 10.3587 26.9962C7.3413 26.4941 4.54299 25.7163 2.25905 24.7687C-0.827219 23.4889 -0.677089 19.2457 2.25659 18.0101L44.3421 0.289111Z" fill="white" fill-opacity="0.5"/>
</svg>
