<svg width="35" height="42" viewBox="0 0 35 42" fill="none" xmlns="http://www.w3.org/2000/svg">
<path d="M8.61911 23.0842H25.8573V18.8871H8.61911V23.0842ZM8.61911 29.3799H25.8573V25.1828H8.61911V29.3799ZM8.61911 35.6756H19.393V31.4785H8.61911V35.6756ZM4.30956 41.9713C3.12443 41.9713 2.11025 41.5607 1.26701 40.7395C0.423773 39.9182 0.00143652 38.9298 0 37.7742V4.19713C0 3.04292 0.422336 2.0552 1.26701 1.23396C2.11168 0.412718 3.12587 0.00139904 4.30956 0H21.5478L34.4765 12.5914V37.7742C34.4765 38.9284 34.0548 39.9168 33.2116 40.7395C32.3684 41.5621 31.3535 41.9727 30.1669 41.9713H4.30956ZM19.393 14.69H30.1669L19.393 4.19713V14.69Z" fill="white" fill-opacity="0.5"/>
</svg>
