<svg width="37" height="37" viewBox="0 0 37 37" fill="none" xmlns="http://www.w3.org/2000/svg">
<path fill-rule="evenodd" clip-rule="evenodd" d="M33.7852 3.34758C33.9596 3.14805 34.093 2.9161 34.1778 2.66498C34.2626 2.41386 34.2972 2.14848 34.2795 1.88401C34.2618 1.61953 34.1922 1.36113 34.0747 1.12356C33.9572 0.885992 33.7941 0.673907 33.5947 0.499414C33.3952 0.324921 33.1634 0.191437 32.9125 0.106585C32.6615 0.0217331 32.3963 -0.0128261 32.1319 0.00488065C31.8676 0.0225874 31.6094 0.0922137 31.3719 0.209784C31.1345 0.327354 30.9225 0.490565 30.7481 0.690099L20.443 12.4742L11.6967 0.807133C11.5088 0.556526 11.2652 0.353122 10.9852 0.213028C10.7052 0.0729345 10.3964 0 10.0833 0H2.01667C1.64215 0 1.27503 0.104352 0.956444 0.301362C0.637859 0.498372 0.380396 0.780257 0.212906 1.11543C0.0454159 1.4506 -0.0254842 1.82582 0.0081497 2.19905C0.0417836 2.57227 0.178623 2.92874 0.403335 3.22853L13.3846 20.5456L2.51479 32.9754C2.34039 33.175 2.20699 33.4069 2.12218 33.658C2.03738 33.9092 2.00284 34.1745 2.02054 34.439C2.03824 34.7035 2.10782 34.9619 2.22532 35.1994C2.34282 35.437 2.50594 35.6491 2.70536 35.8236C2.90478 35.9981 3.1366 36.1316 3.38757 36.2164C3.63855 36.3013 3.90377 36.3358 4.16809 36.3181C4.43242 36.3004 4.69067 36.2308 4.9281 36.1132C5.16553 35.9957 5.3775 35.8324 5.55189 35.6329L15.8571 23.8468L24.6033 35.5139C24.7912 35.7645 25.0348 35.9679 25.3148 36.108C25.5948 36.2481 25.9036 36.321 26.2167 36.321H34.2834C34.6579 36.321 35.025 36.2166 35.3436 36.0196C35.6622 35.8226 35.9196 35.5407 36.0871 35.2056C36.2546 34.8704 36.3255 34.4952 36.2919 34.1219C36.2582 33.7487 36.1214 33.3923 35.8967 33.0925L22.9154 15.7754L33.7852 3.34758ZM27.225 32.2853L6.05001 4.03567H9.07501L30.25 32.2853H27.225Z" fill="white" fill-opacity="0.5"/>
</svg>
