{"asset":{"version":"2.0","generator":"THREE.GLTFExporter r175"},"scenes":[{"name":"AuxScene","nodes":[8]}],"scene":0,"nodes":[{"mesh":0},{"mesh":1},{"mesh":2},{"mesh":3},{"matrix":[0.0820871340228866,0,-0.08208713402288662,0,0,-0.11608873823150416,0,0,0.08208713402288662,0,0.0820871340228866,0,0,0,0,1],"children":[0,1,2,3]},{"children":[4]},{"matrix":[1,0,0,0,0,1,0,0,0,0,1,0,-21.502726102441162,49.99505174384055,21.17437758592072,1],"children":[5]},{"children":[6]},{"children":[7]}],"bufferViews":[{"buffer":0,"byteOffset":0,"byteLength":3312,"target":34962,"byteStride":12},{"buffer":0,"byteOffset":3312,"byteLength":2208,"target":34962,"byteStride":8},{"buffer":0,"byteOffset":5520,"byteLength":3312,"target":34962,"byteStride":12},{"buffer":0,"byteOffset":8832,"byteLength":3744,"target":34962,"byteStride":12},{"buffer":0,"byteOffset":12576,"byteLength":2496,"target":34962,"byteStride":8},{"buffer":0,"byteOffset":15072,"byteLength":3744,"target":34962,"byteStride":12},{"buffer":0,"byteOffset":18816,"byteLength":1584,"target":34962,"byteStride":12},{"buffer":0,"byteOffset":20400,"byteLength":1056,"target":34962,"byteStride":8},{"buffer":0,"byteOffset":21456,"byteLength":1584,"target":34962,"byteStride":12},{"buffer":0,"byteOffset":23040,"byteLength":1584,"target":34962,"byteStride":12},{"buffer":0,"byteOffset":24624,"byteLength":1056,"target":34962,"byteStride":8},{"buffer":0,"byteOffset":25680,"byteLength":1584,"target":34962,"byteStride":12}],"buffers":[{"byteLength":27264,"uri":"data:application/octet-stream;base64,"}],"accessors":[{"bufferView":0,"componentType":5126,"count":276,"max":[519.9000244140625,475.510009765625,170.60000610351562],"min":[2.1600000858306885,0,-0.6000000238418579],"type":"VEC3"},{"bufferView":1,"componentType":5126,"count":276,"max":[519.9000244140625,475.510009765625],"min":[2.1600000858306885,-169.60000610351562],"type":"VEC2"},{"bufferView":2,"componentType":5126,"count":276,"max":[1,0.8572413325309753,1],"min":[-0.9999849796295166,-0.8540682196617126,-1],"type":"VEC3"},{"bufferView":3,"componentType":5126,"count":312,"max":[517.5800170898438,861.4099731445312,170.60000610351562],"min":[0,385.2300109863281,-0.6000000238418579],"type":"VEC3"},{"bufferView":4,"componentType":5126,"count":312,"max":[706.6199951171875,861.4099731445312],"min":[0,-169.60000610351562],"type":"VEC2"},{"bufferView":5,"componentType":5126,"count":312,"max":[0.9999608993530273,0.8567681312561035,1],"min":[-1,-0.8579759001731873,-1],"type":"VEC3"},{"bufferView":6,"componentType":5126,"count":132,"max":[243.57000732421875,524.72998046875,170.60000610351562],"min":[194.69000244140625,285.30999755859375,-0.6000000238418579],"type":"VEC3"},{"bufferView":7,"componentType":5126,"count":132,"max":[524.72998046875,524.72998046875],"min":[194.69000244140625,-169.60000610351562],"type":"VEC2"},{"bufferView":8,"componentType":5126,"count":132,"max":[1,0.8580192923545837,1],"min":[-1,-0.8541445136070251,-1],"type":"VEC3"},{"bufferView":9,"componentType":5126,"count":132,"max":[325.7200012207031,573.9400024414062,170.60000610351562],"min":[276.8299865722656,335.19000244140625,-0.6000000238418579],"type":"VEC3"},{"bufferView":10,"componentType":5126,"count":132,"max":[573.9400024414062,573.9400024414062],"min":[276.8299865722656,-169.60000610351562],"type":"VEC2"},{"bufferView":11,"componentType":5126,"count":132,"max":[1,0.8580653667449951,1],"min":[-1,-0.855510413646698,-1],"type":"VEC3"}],"materials":[{"pbrMetallicRoughness":{"baseColorFactor":[1,0,0.02217388478862708,1],"metallicFactor":1,"roughnessFactor":0.2},"doubleSided":true,"extensions":{"KHR_materials_clearcoat":{"clearcoatFactor":0.1,"clearcoatRoughnessFactor":0}}}],"meshes":[{"primitives":[{"mode":4,"attributes":{"POSITION":0,"TEXCOORD_0":1,"NORMAL":2},"material":0}]},{"primitives":[{"mode":4,"attributes":{"POSITION":3,"TEXCOORD_0":4,"NORMAL":5},"material":0}]},{"primitives":[{"mode":4,"attributes":{"POSITION":6,"TEXCOORD_0":7,"NORMAL":8},"material":0}]},{"primitives":[{"mode":4,"attributes":{"POSITION":9,"TEXCOORD_0":10,"NORMAL":11},"material":0}]}],"extensionsUsed":["KHR_materials_clearcoat"]}